<?xml version="1.0" encoding="utf-8"?>
<!-- Generator: Adobe Illustrator 19.0.0, SVG Export Plug-In . SVG Version: 6.00 Build 0)  -->
<svg version="1.1" id="Layer_1" xmlns="http://www.w3.org/2000/svg" xmlns:xlink="http://www.w3.org/1999/xlink" x="0px" y="0px"
	 viewBox="0 0 2424.2 386" style="enable-background:new 0 0 2424.2 386;" xml:space="preserve">
<style type="text/css">
	.st0{display:none;fill:none;stroke:#FFFFFF;stroke-miterlimit:10;}
	.st1{fill:#FFFFFF;}
</style>
<g>
	<path class="st0" d="M830.3,16.9c471.8,0,943.7,0,1415.5-0.1c3.7,0,4.6,0.8,4.6,4.6c-0.1,71.5-0.1,143-0.1,214.5
		c-2.8-0.3-2.4-2.8-2.9-4.5c-2.2-8.8-5.3-17.2-10.5-24.7c-7.8-11.4-18.7-18.9-31-24.4c-19.4-8.7-40.1-12.2-61-14.9
		c-13.2-1.7-26.5-3.1-39.1-7.9c-7.5-2.9-14.8-6.2-19.2-13.6c-8.1-13.7-3.4-30.5,11.1-39.9c7.8-5.1,16.6-7.8,25.7-9.1
		c13.2-1.8,26.2-1.4,39.1,2.2c14.7,4.1,27.9,11,37.8,23c1.9,2.3,3.6,2.4,6,1.2c10.2-5,19.9-10.8,30.2-15.6c3.8-1.7,2.9-4,1.2-6.9
		c-11.6-19.6-28.9-31.9-50.2-38.9c-16.8-5.5-34.2-7.9-51.7-7.3c-25.6,0.9-50.4,5.8-71.7,21.3c-21.8,15.8-30.6,37.5-27.9,64
		c1.3,12.9,5.3,24.7,13.4,35c8.7,11.2,20.6,17.8,33.4,22.9c18.8,7.5,38.6,10.3,58.4,12.7c14.3,1.8,28.3,4.3,41.3,11
		c27.8,14.3,22.2,46.5,3.6,58.6c-10.1,6.5-21.1,10-32.9,10.9c-16,1.3-32,1-47.4-4.4c-17-5.9-31-15.5-39.6-31.6c-2-3.7-4-4-7.6-2.3
		c-9.9,4.9-19.4,10.3-29.3,15.2c-4.8,2.4-5,3.2-2.6,8.1c13.7,28.8,36.7,45.8,67.3,53.3c14.8,3.6,29.9,5.3,45.1,5
		c23.4-0.4,46.5-3.7,67.7-14.8c20.4-10.7,34.5-26.3,40-49.1c0.5-2,0.1-4.9,3.3-5.4c0,34.5-0.1,69,0.1,103.5c0,3.8-0.8,4.6-4.6,4.6
		c-418-0.1-836-0.1-1254-0.1c-26.8,0-53.7,0-80.5,0c-2.3-2.7-1.6-6-1.6-9.1c0-81.8,0.1-163.5-0.1-245.3c0-13.6-1.1-27.3-6.3-40.2
		c-12.1-30.3-34-49.4-65.6-57.6C835.1,19.9,831.5,20.6,830.3,16.9z"/>
	<path class="st1" d="M969.3,195.4c0-42.7,0.1-85.3-0.1-128c0-4.9,0-4.9,0-4.9l45.4,0l5.3,0l-0.2,107.6l0,4.8l130.8,0.1l-0.1-5
		l-0.2-107.5l4.8,0l45.4,0v4.4l0,258l0,4.1l-46.1,0l-4.1,0l0.2-107.7l-4.7,0l-126,0l0,4.9l0.2,102.8l-4.6,0l-41.5,0l-4.7,0
		C969.2,329,969.3,238.4,969.3,195.4z"/>
	<path class="st1" d="M1649.7,335.4c-22.4-0.3-46.7-3.4-68.9-15.5c-19.4-10.6-32.8-26.7-41.7-46.8c-1.2-2.7-1.3-3.3-1.3-3.3
		l42.1-21.7c0,0-0.3-0.7,1.2,2.4c10.7,23,30.3,33.8,53.9,38.1c19.1,3.4,38.2,2.7,56.5-4.7c17.1-6.9,25.4-19.8,24-36.7
		c-0.8-9.9-6.3-17-14.3-22.2c-11.1-7.2-23.8-10.2-36.7-12c-20.9-2.9-42-5.1-62.1-12.1c-13.3-4.6-25.7-11-35.5-21.5
		c-13.6-14.6-18-32.4-17.1-51.6c1.7-34.9,22.5-55.2,53.5-65.9c38.1-13.2,76.2-12.2,113.4,4.1c17.1,7.5,30,20.1,39,36.6
		c1.4,2.6,2,3.8,2,3.8l-40.2,20.5c0,0,0.2,0.4-1.5-1.9c-12.2-16.3-29.6-23.8-49-26.8c-17.2-2.6-34.3-1.3-50.1,6.9
		c-13.4,6.9-20,20.6-16.7,33.5c2,7.9,7.4,12.8,14.3,16.4c11.9,6.2,24.9,8.2,37.9,9.9c21.1,2.8,42.3,5.5,62.3,13.1
		c21.6,8.2,39.4,20.9,46.6,43.9c12.1,38.9,1.8,81.9-44.7,102C1696,332.6,1674.3,335.5,1649.7,335.4z"/>
	<path class="st1" d="M1873.1,217.9c0-35,0.1-105,0.1-105l0-5.1l-80,0.4l-4.9,0V62.3h4l211.5,0l4,0l0,41.9l0,4.1l-79.4-0.3l-5.3,0
		l0.2,220.9h-5.5h-44.9l0-4.9C1873.1,323.9,1873.1,253.2,1873.1,217.9z"/>
	<path class="st1" d="M910.9,366.9c0-57.8,0.1-115.6-0.1-173.4c-0.1-29.1,0.6-58.3-0.4-87.4c-1.4-40.9-30.2-76.5-69.9-86.5
		c-3.4-0.9-7.2-0.7-10.3-2.8c-267.5,0-535,0-802.5-0.1c-3.7,0-4.6,0.8-4.6,4.6c0.1,90.8,0.1,181.7,0.1,272.5c1.2,4.1,1,8.5,2.2,12.6
		c5.8,20.2,17.6,36.4,34,49.2c11.9,9.4,25.6,15.2,40.8,17.2c270.3,0,540.7,0,811,0C911.2,370.9,910.9,368.9,910.9,366.9z
		 M311.4,295.5c-12.2,15.3-28.5,24.5-46.9,29.6c-37.1,10.4-74.1,10.4-110.1-4.5c-23.5-9.7-40.3-26.1-46.5-51.7
		c-4.4-18.2-4.4-18.2-4.4-18.2l52.6,0c0,0,0-0.5,0.2,2.5c0.8,10.6,6.7,18.3,15.5,23c28.1,15.2,56.7,15.8,84.9,0.7
		c15.3-8.2,20.8-23.9,15.8-39.6c-3.2-10-10.6-15.8-20-19.5c-11.2-4.5-23-5.2-34.8-5.4c-12.3-0.2-24.7-0.2-37,0c-3.4,0.1-4.6,0-4.6,0
		l0-40.8c0,0,1.4,0.1,4.6,0c16-0.2,32,0.9,47.9-0.8c8.8-0.9,17.4-2.7,25.4-6.8c19.2-9.9,22-32.9,5.7-47.2
		c-7.7-6.7-16.9-9.8-26.7-11.4c-16.5-2.7-32.9-1.9-48.8,3.7c-12.3,4.3-22.6,11-24.4,25.5c-0.2,1.7-0.3,2.2-0.3,2.2l-49.7,0
		c0,0,0.2-1.8,0.3-3.9c1.1-26.4,14.4-45.1,36.7-57.9c17.5-10.1,36.8-14.5,56.7-15.9c26-1.8,51.2,1.6,74.6,13.9
		c26.4,13.9,41.9,35.5,41.8,65.9c-0.1,23.6-11.3,41.3-33,51.6c-0.9,0.4-2,0.5-2.4,1.9c12.5,4.8,22.6,12.7,30.8,23.4
		C334.3,240.5,326.6,276.4,311.4,295.5z M542.6,313c-47.8,27.4-96.7,27.1-144-1.3c-25.4-15.2-37.6-39.2-37.5-69.1
		c0.1-31.5,0.6-63-0.1-94.5c-0.9-39.5,21.2-65.8,52.8-79.4c23.2-10,47.5-12.4,72.4-10.5c19.1,1.5,37.6,5.4,54.6,14.5
		c23.3,12.6,36.6,31.8,38.5,58.5c0.3,3.6,0.3,4.9,0.3,4.9l-50.2-0.1c0,0,0.1-0.4-0.3-3.6c-1.5-11.3-8.9-18.7-18.6-23.1
		c-24.9-11.3-50.2-12.6-75.2-0.4c-16.5,8.1-25.4,21.4-24.9,40.4c0.3,11.1,0.1,22.3,0.1,34.2c23-25.5,51.7-30.1,83.1-26.3
		c15.1,1.8,29.8,5.4,43.5,12.4c28.2,14.3,43,37.3,44.7,68.8C583.5,271.1,570.6,296.9,542.6,313z M802.2,304.2
		c-15.6,14.6-34.7,22.3-55.5,25.3c-26.7,3.9-53.2,2.1-78.9-6.7C635.6,311.7,617,287,615.3,254c-0.2-4.2-0.3-5.9-0.3-5.9l49.9,0.4
		c0,0,0,0.6,0.4,4.6c0.7,8.2,5,14.6,11.4,19.8c17.5,14.3,65.1,18,87.9,0c18.1-14.3,22.5-52.1-9.1-63.9c-10.3-3.8-20.9-5.5-31.8-5.6
		c-32.3-0.1-64.7-0.1-97,0.1c-4.4,0-5.6-0.1-5.6-0.1V62.7c0,0,1.2,0,5.3,0c30.3,0.2,60.7,0.1,91,0.1c30.3,0,60.7,0.1,91-0.1
		c4.3,0,5.1,0,5.1,0l0,47.2c0,0-1,0-4.9,0c-44.2-0.1-138.7-0.1-138.7-0.1s0-1.1,0,6.5c0,11.5,0.3,23-0.2,34.5
		c-0.2,5.3-0.2,6.2-0.2,6.2s40-0.3,56.6-0.1c17.9,0.3,35.5,2.9,52.2,9.7c29.2,11.9,46.4,33.1,49.4,65
		C830.2,259.7,823.4,284.6,802.2,304.2z"/>
	<path class="st1" d="M1505.2,161.6c-9.6-40.9-31.6-72.6-70.1-91.2C1407,56.7,1377,54.2,1346.4,59c-39,6.2-69.9,25.5-89.9,59.8
		c-24.7,42.3-27.7,87.2-11.4,133.1c12.2,34.4,35.6,58.8,69.7,72.5c24.1,9.6,49.4,12,75,9.4c39.6-4,72.3-20.7,94.9-54.4
		c16.9-25.2,23.8-53.5,24.1-83.6C1509,184.2,1507.9,172.8,1505.2,161.6z M1448.1,245c-13.2,26.3-35.3,39.7-64.2,42.9
		c-2.5,0.3-5,0.4-7.5,0.5c-1.3,0.1-2.7,0-4,0c-24.2-0.1-46-6.5-63.1-24.7c-12.6-13.4-19.3-29.7-22.4-47.6
		c-3.7-21.5-2.3-42.5,6.5-62.6c14.3-32.8,40-49.1,75.4-50.5c19.2-0.8,37.5,3.1,53.5,14.3c19,13.3,29.5,32.1,34.3,54.3
		C1462,197,1459.7,221.7,1448.1,245z"/>
	<path class="st1" d="M471.4,287.9c-14.5-0.2-28.5-2.4-41.2-10c-26.2-15.8-26.5-51.4-0.5-67.8c8.9-5.6,18.7-8.6,29.1-9.7
		c16.2-1.8,32.3-1.1,47.5,5.6c25,11,34.2,40.2,19,60.9c-7.2,9.7-17.4,14.7-28.7,17.9C488.4,287.1,480,288.1,471.4,287.9z"/>
</g>
<path class="st1" d="M2134.2,335.4c-22.4-0.3-46.7-3.4-68.9-15.5c-19.4-10.6-32.8-26.7-41.7-46.8c-1.2-2.7-1.3-3.3-1.3-3.3
	l42.1-21.7c0,0-0.3-0.7,1.2,2.4c10.7,23,30.3,33.8,53.9,38.1c19.1,3.4,38.2,2.7,56.5-4.7c17.1-6.9,25.4-19.8,24-36.7
	c-0.8-9.9-6.3-17-14.3-22.2c-11.1-7.2-23.8-10.2-36.7-12c-20.9-2.9-42-5.1-62.1-12.1c-13.3-4.6-25.7-11-35.5-21.5
	c-13.6-14.6-18-32.4-17.1-51.6c1.7-34.9,22.5-55.2,53.5-65.9c38.1-13.2,76.2-12.2,113.4,4.1c17.1,7.5,30,20.1,39,36.6
	c1.4,2.6,2,3.8,2,3.8l-40.2,20.5c0,0,0.2,0.4-1.5-1.9c-12.2-16.3-29.6-23.8-49-26.8c-17.2-2.6-34.3-1.3-50.1,6.9
	c-13.4,6.9-20,20.6-16.7,33.5c2,7.9,7.4,12.8,14.3,16.4c11.9,6.2,24.9,8.2,37.9,9.9c21.1,2.8,42.3,5.5,62.3,13.1
	c21.6,8.2,39.4,20.9,46.6,43.9c12.1,38.9,1.8,81.9-44.7,102C2180.5,332.6,2158.8,335.5,2134.2,335.4z"/>
<g>
	<path class="st1" d="M2291.8,103.6c0-13.6,4.8-25.3,14.5-35c9.7-9.7,21.3-14.5,35-14.5c13.6,0,25.1,4.8,34.7,14.5
		c9.6,9.7,14.4,21.3,14.4,35c0,13.9-4.8,25.6-14.3,35.3c-9.5,9.6-21.1,14.5-34.8,14.5c-13.6,0-25.3-4.9-35-14.6
		C2296.7,129.1,2291.8,117.3,2291.8,103.6z M2378.9,103.8c0-11-3.7-20.4-11.1-28.2c-7.4-7.8-16.2-11.7-26.6-11.7
		s-19.2,3.9-26.6,11.7c-7.4,7.8-11.1,17.2-11.1,28.2s3.7,20.4,11,28c7.3,7.7,16.2,11.6,26.6,11.6c10.4,0,19.3-3.9,26.6-11.6
		C2375.3,124.2,2378.9,114.8,2378.9,103.8z M2332.7,109.8v22.7h-11.7v-55c6.7-1,12.5-1.5,17.6-1.5c8.2,0,14.2,1.2,18,3.7
		c3.8,2.5,5.7,6.7,5.7,12.5c0,6.5-3.5,10.7-10.6,12.8v0.4c5,1,7.9,5.4,8.8,13.4c0.8,6.2,1.8,10.8,2.9,13.6h-11.9
		c-1-1.2-2.1-6-3.3-14.3c-0.8-5.6-4.3-8.4-10.3-8.4H2332.7z M2332.7,84.9v15.8h5.5c8.1,0,12.1-2.6,12.1-7.9c0-5.4-3.7-8.1-11.2-8.1
		C2335.8,84.7,2333.6,84.8,2332.7,84.9z"/>
</g>
<rect x="2261.9" y="535.1" style="fill:none;" width="182.6" height="164.4"/>
<text transform="matrix(1 0 0 1 2261.8547 691.7527)" class="st1" style="font-family:'MyriadWebPro-Bold'; font-size:220px;">®</text>
</svg>
